<svg viewBox="0 0 24 28" xmlns="http://www.w3.org/2000/svg"><g fill="currentColor" fill-rule="evenodd"><path d="M21.544 8A.99.99 0 0 0 20.591 9v16.995H1.909V2.004H12a.99.99 0 0 0 .955-1.002A.99.99 0 0 0 12 0H1.909C.844.014-.009.91 0 2.004v23.992C-.008 27.09.845 27.985 1.91 28h18.68c1.062-.023 1.91-.913 1.91-2.004V9a.99.99 0 0 0-.956-1.002v.002z"/><path d="M4.7 7.747h9.087c.528.012.95.463.95 1.014 0 .551-.422 1.002-.95 1.014H4.7c-.528-.012-.95-.463-.95-1.014 0-.551.422-1.002.95-1.014zm0 6.085h10.998c.528.012.95.463.95 1.014 0 .552-.422 1.002-.95 1.015H4.7c-.528-.013-.95-.463-.95-1.015-.007-.556.417-1.014.95-1.027v.013zm0 6.085h12.899c.528.013.95.463.95 1.015 0 .551-.422 1.002-.95 1.014h-12.9c-.527-.012-.949-.463-.949-1.014a1.04 1.04 0 0 1 .27-.724.953.953 0 0 1 .68-.313v.022zm9.087-17.226c.25-.269.592-.42.95-.42.359 0 .702.151.951.42L19.5 6.748l-1.078 1.146a1.127 1.127 0 0 1-.824.363c-.31 0-.608-.131-.825-.363l-2.986-3.175a1.497 1.497 0 0 1 0-2.028z"/><path d="M17.53 5.336l4.141-4.177a1.354 1.354 0 0 1 1.93 0 1.39 1.39 0 0 1 0 1.95L19.46 7.285a.958.958 0 0 1-1.363 0l-.566-.57a.985.985 0 0 1 0-1.378z"/></g></svg>