<svg viewBox="0 0 28 28" xmlns="http://www.w3.org/2000/svg"><g fill="currentColor" fill-rule="evenodd"><path d="M28 14.722l-.025-1.393a2.538 2.538 0 0 0-.781-1.793 2.538 2.538 0 0 0-1.821-.716l-.673.012a11.426 11.426 0 0 0-.903-2.136l.588-.542a2.538 2.538 0 0 0 .822-1.775 2.538 2.538 0 0 0-.675-1.835l-.944-1.025a2.561 2.561 0 0 0-3.613-.147l-.787.725a11.46 11.46 0 0 0-2.006-.857v-.685A2.559 2.559 0 0 0 14.625 0h-1.393a2.559 2.559 0 0 0-2.557 2.555v.534c-.749.2-1.474.476-2.168.823l-.482-.444a2.541 2.541 0 0 0-1.837-.674 2.54 2.54 0 0 0-1.776.821L3.468 4.64a2.557 2.557 0 0 0 .147 3.611l.12.11c-.478.805-.852 1.66-1.12 2.556a2.54 2.54 0 0 0-1.809.716 2.538 2.538 0 0 0-.78 1.793L0 14.818a2.537 2.537 0 0 0 .717 1.82 2.54 2.54 0 0 0 1.794.78l.07.001a11.41 11.41 0 0 0 1.04 2.479l-.152.165a2.537 2.537 0 0 0-.676 1.836c.028.682.32 1.312.821 1.775l1.024.944c.491.453 1.113.677 1.733.677.69 0 1.377-.277 1.88-.822l.04-.043c.776.41 1.593.728 2.441.95v.065A2.559 2.559 0 0 0 13.29 28h1.394a2.559 2.559 0 0 0 2.557-2.555v-.25c.804-.26 1.574-.608 2.303-1.04l.206.223a2.54 2.54 0 0 0 1.776.82 2.539 2.539 0 0 0 1.837-.675l1.024-.945a2.538 2.538 0 0 0 .821-1.775 2.537 2.537 0 0 0-.676-1.836l-.538-.582c.33-.658.594-1.343.792-2.05l.704-.013a2.559 2.559 0 0 0 2.51-2.6zm-2.075.544a.712.712 0 0 1-.484.195l-1.407.025a.931.931 0 0 0-.895.74 9.586 9.586 0 0 1-1.088 2.836.93.93 0 0 0 .122 1.097l.989 1.071c.125.136.19.313.183.498a.689.689 0 0 1-.223.482l-1.024.944a.69.69 0 0 1-.98-.04l-.735-.795a.932.932 0 0 0-1.215-.135 9.602 9.602 0 0 1-3.091 1.41.931.931 0 0 0-.7.902v.949c0 .383-.311.693-.694.693h-1.394a.693.693 0 0 1-.693-.693v-.808a.931.931 0 0 0-.757-.914 9.587 9.587 0 0 1-3.24-1.26.932.932 0 0 0-1.175.16l-.542.588a.695.695 0 0 1-.98.04l-1.024-.945a.688.688 0 0 1-.223-.482.688.688 0 0 1 .183-.498l.63-.681a.93.93 0 0 0 .095-1.14 9.578 9.578 0 0 1-1.344-3.203.932.932 0 0 0-.894-.732l-.78-.014a.694.694 0 0 1-.682-.705l.025-1.378a.69.69 0 0 1 .706-.695l.719.013a.932.932 0 0 0 .925-.724 9.576 9.576 0 0 1 1.469-3.333.93.93 0 0 0-.135-1.214l-.694-.64a.694.694 0 0 1-.04-.979l.944-1.024a.69.69 0 0 1 .482-.223.69.69 0 0 1 .498.183l.971.894c.3.277.745.326 1.098.122a9.597 9.597 0 0 1 2.956-1.112.931.931 0 0 0 .751-.913V2.555c0-.383.31-.693.694-.693h1.393c.383 0 .694.31.694.693v1.388c0 .427.29.8.706.903a9.608 9.608 0 0 1 2.79 1.191.932.932 0 0 0 1.128-.103l1.295-1.193a.695.695 0 0 1 .98.04l.944 1.025c.126.136.19.313.183.498a.688.688 0 0 1-.223.481L21.98 7.837a.93.93 0 0 0-.154 1.186 9.588 9.588 0 0 1 1.26 2.967c.1.426.485.725.923.717l1.397-.025a.689.689 0 0 1 .494.194.688.688 0 0 1 .212.487l.024 1.392a.689.689 0 0 1-.211.511z"/><path d="M13.563 10.5a3.942 3.942 0 0 0-3.938 3.938 3.942 3.942 0 0 0 3.938 3.937 3.942 3.942 0 0 0 3.937-3.938 3.942 3.942 0 0 0-3.938-3.937zm0 6.066a2.131 2.131 0 0 1-2.13-2.128c0-1.174.956-2.13 2.13-2.13 1.173 0 2.128.956 2.128 2.13a2.131 2.131 0 0 1-2.129 2.128z"/></g></svg>