<svg viewBox="0 0 28 26" xmlns="http://www.w3.org/2000/svg"><g fill="currentColor" fill-rule="evenodd"><path d="M21.68 26H2.853A2.85 2.85 0 0 1 0 23.149V6.1A2.85 2.85 0 0 1 2.854 3.25H21.68a2.85 2.85 0 0 1 2.854 2.851V23.15A2.85 2.85 0 0 1 21.68 26zM2.853 5.07c-.577 0-1.032.455-1.032 1.031V23.15c0 .576.455 1.031 1.032 1.031H21.68c.577 0 1.033-.455 1.033-1.031V6.1c0-.576-.456-1.031-1.033-1.031H2.854z" fill-rule="nonzero"/><path d="M26.822 22.75a.894.894 0 0 1-.91-.91V4.975a3.173 3.173 0 0 0-3.158-3.155H4.11A.894.894 0 0 1 3.2.91c0-.516.395-.91.91-.91h18.644a4.98 4.98 0 0 1 4.98 4.975V21.84c0 .516-.395.91-.912.91z"/><path d="M.924 22.75a.905.905 0 0 1-.812-.48c-.25-.449-.063-.988.375-1.228l15.611-8.09a.931.931 0 0 1 1.124.18l3.872 4.075a.871.871 0 0 1-.062 1.258.962.962 0 0 1-1.312-.06l-3.372-3.536L1.361 22.63a.739.739 0 0 1-.437.12zm6.4-8.39c-1.623 0-2.966-1.289-2.966-2.847s1.343-2.846 2.967-2.846c1.623 0 2.966 1.288 2.966 2.846S8.948 14.36 7.325 14.36zm0-3.895c-.593 0-1.092.479-1.092 1.048 0 .57.5 1.05 1.093 1.05s1.092-.48 1.092-1.05c0-.569-.5-1.048-1.092-1.048z" fill-rule="nonzero"/></g></svg>