<svg viewBox="0 0 28 22" xmlns="http://www.w3.org/2000/svg"><path d="M27.131 17.175c-.555-1.087-1.346-2.058-2.353-2.887a10.975 10.975 0 0 0-3.233-1.835 7.078 7.078 0 0 0 2.523-5.446c0-3.862-3.044-7.003-6.786-7.003-.64 0-1.157.533-1.157 1.194 0 .661.517 1.195 1.157 1.195 2.466 0 4.472 2.07 4.472 4.614s-2.006 4.614-4.472 4.614c-.64 0-1.157.534-1.157 1.194v.116c-.366-.18-.74-.339-1.126-.482a7.078 7.078 0 0 0 2.523-5.446C17.522 3.14 14.478 0 10.736 0 6.994 0 3.95 3.141 3.95 7.003a7.09 7.09 0 0 0 2.523 5.446 10.975 10.975 0 0 0-3.233 1.835 9.204 9.204 0 0 0-2.353 2.887A7.928 7.928 0 0 0 0 20.806C0 21.466.517 22 1.157 22s1.158-.533 1.158-1.194c0-1.74.84-3.396 2.368-4.658 1.605-1.326 3.75-2.055 6.045-2.055 2.296 0 4.444.729 6.045 2.055 1.528 1.262 2.369 2.914 2.369 4.658 0 .66.517 1.194 1.157 1.194s1.157-.533 1.157-1.194a7.88 7.88 0 0 0-.887-3.635c-.555-1.087-1.346-2.058-2.353-2.887-.066-.055-.135-.107-.2-.163 2.01.14 3.873.848 5.3 2.027 1.528 1.262 2.369 2.914 2.369 4.658 0 .66.516 1.194 1.157 1.194.64 0 1.157-.533 1.157-1.194a7.635 7.635 0 0 0-.868-3.631zM10.744 2.393c2.465 0 4.47 2.07 4.47 4.614s-2.005 4.614-4.47 4.614-4.471-2.07-4.471-4.614 2.006-4.614 4.47-4.614z" fill="currentColor" fill-rule="evenodd" /></svg>