<svg viewBox="0 0 28 30" xmlns="http://www.w3.org/2000/svg"><g fill="currentColor" fill-rule="evenodd"><path d="M25.161 30H9.754a3.026 3.026 0 0 1-2.124-.844 2.838 2.838 0 0 1-.871-2.058V6.652c0-1.603 1.34-2.902 2.995-2.902h10.454c.25 0 .49.095.666.266l6.832 6.202a.952.952 0 0 1 .294.701v16.293c.005.734-.291 1.44-.823 1.963A2.904 2.904 0 0 1 25.16 30zM9.754 5.647c-.573 0-1.038.45-1.038 1.005v20.446c0 .555.465 1.005 1.038 1.005h15.407c.5-.01.9-.406.9-.891V11.318l-6.225-5.69-10.082.019z"/><path d="M3.012 27.188C1.353 27.177.011 25.901 0 24.325V2.863C.01 1.286 1.353.01 3.012 0h11.812c.52.03.926.44.925.936 0 .516-.44.935-.984.935H2.953c-.553.03-.985.465-.984.992v21.462c0 .547.467.991 1.043.991.544 0 .984.42.984.936 0 .517-.44.936-.984.936zm17.245-14.315c-.544 0-.984-.419-.984-.935V5.333c.01-.513.445-.926.984-.936.261 0 .511.099.696.274a.913.913 0 0 1 .288.662v6.605a.913.913 0 0 1-.288.661 1.01 1.01 0 0 1-.696.274z"/><path d="M27.026 13.145h-6.78a.961.961 0 0 1-.973-.947c0-.524.436-.948.974-.948h6.779c.538 0 .974.424.974.948a.961.961 0 0 1-.974.947zm-4.987 6.235h-8.513a.988.988 0 0 1-.689-.277.935.935 0 0 1-.285-.67c0-.523.436-.948.974-.948h8.513c.538 0 .974.425.974.948a.935.935 0 0 1-.285.67.988.988 0 0 1-.69.277zm0 5.933h-8.513a.961.961 0 0 1-.974-.948c0-.251.102-.492.285-.67a.988.988 0 0 1 .689-.278h8.513c.538 0 .974.425.974.948a.961.961 0 0 1-.974.948z"/></g></svg>