<svg viewBox="0 0 28 28" xmlns="http://www.w3.org/2000/svg"><g fill="currentColor" fill-rule="evenodd"><path d="M13.926 11.407a3.799 3.799 0 0 0 2.228-3.459c0-2.095-1.691-3.8-3.77-3.8-2.078 0-3.769 1.703-3.769 3.8a3.8 3.8 0 0 0 2.226 3.46 6.116 6.116 0 0 1 1.544-.218c.536 0 1.046.088 1.541.217zm-4.07-3.459a2.54 2.54 0 0 1 2.53-2.547 2.54 2.54 0 0 1 2.529 2.547c0 1.406-1.135 2.552-2.529 2.552-1.395 0-2.53-1.148-2.53-2.552zM13.899 17.42H7.748c.31-2.269 2.43-4.03 4.993-4.03 1.315 0 2.507.469 3.403 1.227.272-.176.543-.357.824-.493L17.23 14a6.429 6.429 0 0 0-2.939-1.556 4.023 4.023 0 0 1-1.55.314c-.554 0-1.08-.116-1.555-.312-2.708.636-4.725 2.871-4.725 5.545 0 .317.28.573.624.573l5.998.103s.74-1.1.815-1.247z"/><path d="M15.077 11.972c-.436-.565-.962-.565-1.522-.565s-1.305 0-1.709.565c.496.297 1.041.472 1.616.472.578 0 1.12-.175 1.615-.472zM21.708 19.861c-.802-.377-1.77-.054-2.16.725-.39.777-.057 1.715.747 2.094.146.07.299.09.453.115.685.105 1.389-.203 1.709-.838a1.529 1.529 0 0 0-.29-1.755 1.603 1.603 0 0 0-.46-.34z"/><path d="M26.585 21.894c.571-.138 1.041-.27 1.412-.396a6.425 6.425 0 0 0-.06-1.117c-.001-.032-.007-.064-.01-.096-.386-.089-.863-.17-1.446-.247a5.398 5.398 0 0 0-.31-.92c.42-.394.757-.732 1.012-1.021-.202-.361-.433-.701-.691-1.016-.378.109-.84.269-1.382.483a5.331 5.331 0 0 0-.748-.646c.161-.543.276-1 .348-1.375a7.575 7.575 0 0 0-1.124-.55 17.095 17.095 0 0 0-.947 1.082c-.102-.028-.212-.039-.316-.062-.221-.053-.438-.11-.665-.136a15.112 15.112 0 0 0-.413-1.355 7.137 7.137 0 0 0-1.156.055c-.04.003-.072.008-.106.013-.087.368-.178.83-.254 1.392a5.443 5.443 0 0 0-.886.279c-.025.009-.048.01-.069.02-.408-.406-.76-.731-1.06-.974-.225.112-.42.26-.63.394-.139.094-.293.167-.425.27.113.363.28.804.502 1.328a5.716 5.716 0 0 0-.642.689h-.148c-.507-.136-.95-.24-1.306-.303-.062.095-.103.204-.16.303-.148.255-.298.51-.411.78.145.132.31.271.497.423.187.151.395.313.627.484a5.51 5.51 0 0 0-.203.95c-.57.136-1.04.27-1.41.396-.015.366.005.739.054 1.114l.016.1c.382.088.863.168 1.446.246.039.16.106.308.157.463.051.151.088.31.152.456-.244.23-.454.437-.645.63-.136.139-.263.271-.37.39.2.363.43.701.692 1.021.374-.109.84-.272 1.382-.487.226.239.48.453.747.647-.162.541-.28 1-.348 1.373.353.214.732.398 1.124.548.272-.273.583-.633.944-1.08.32.095.646.16.984.198.143.548.281 1 .412 1.356a7.42 7.42 0 0 0 1.262-.066c.09-.37.175-.832.252-1.393.333-.073.65-.174.955-.3.408.407.763.732 1.062.977a6.898 6.898 0 0 0 1.055-.665c-.11-.363-.276-.807-.502-1.33a5.68 5.68 0 0 0 .67-.719c.563.155 1.04.266 1.428.335a6.47 6.47 0 0 0 .57-1.085c-.288-.259-.66-.561-1.125-.908.1-.308.17-.623.206-.948zm-5.06 3.224a4.116 4.116 0 0 1-3.343-1.089 3.85 3.85 0 0 1-.81-1.085 3.731 3.731 0 0 1-.383-1.18c-.129-.935.119-1.83.605-2.573.4-.61.968-1.103 1.657-1.424.38-.176.783-.313 1.223-.368a4.135 4.135 0 0 1 1.852.198c.405.137.789.32 1.126.566a3.862 3.862 0 0 1 1.56 2.59c.29 2.131-1.274 4.086-3.486 4.365z"/><path d="M10.718 21.06H4.374c-1.409 0-2.552-1.1-2.552-2.457V4.212c0-1.357 1.143-2.457 2.552-2.457h14.944c1.41 0 2.552 1.1 2.552 2.457v6.478c0 .065 1.327.166 1.822.305V3.51c0-1.94-1.63-3.51-3.645-3.51H3.645C1.631 0 0 1.57 0 3.51v15.795c0 1.94 1.631 3.51 3.645 3.51h7.35c-.128-.48-.226-1.755-.277-1.755z"/><path d="M9.69 10.373s-6.463-.357-6.46 7.257h1.285s-.409-5.446 5.177-5.942l-.002-1.315z"/><path d="M9.692 5.185s-3.23 0-3.23 3.111c0 0 0 2.901 3.23 3.111v-1.06s-1.88-.154-2.046-2.05c0 0-.086-1.976 2.046-2.135v-.977z"/></g></svg>